<?xml version="1.0" encoding="utf-8"?>
<!-- Generator: Adobe Illustrator 19.0.0, SVG Export Plug-In . SVG Version: 6.00 Build 0)  -->
<svg version="1.1" id="Layer_1" xmlns="http://www.w3.org/2000/svg" xmlns:xlink="http://www.w3.org/1999/xlink" x="0px" y="0px"
	 viewBox="-241 37 128 128" style="enable-background:new -241 37 128 128;" xml:space="preserve">
<style type="text/css">
	.st0{fill:#2F2F2F;}
	.st1{fill:#757F3F;}
	.st2{fill:#BDCF46;}
</style>
<g>
	<path class="st0" d="M-200.9,74.8c0,0,2.5-1.5,4-2.1l22.2,8.2l36,1c0,0,2.7,2.8,3.5,3.8l6.5,18.7l5.3,2.1c0,0,1.2,3.6,1.6,5
		l-1.1,8.6l-52.1,12.9l-41.9-10.3l0.1-25.7l12.8-16.7L-200.9,74.8z"/>
	<g>
		<g>
			<path class="st1" d="M-167.9,96.6c-0.1,5.1-0.4,19.6-0.3,28c1.7,0,3.5-0.1,5.5-0.3c2.7-0.3,5.5-0.8,8.2-1.3l1.7-0.3
				c2.8-0.5,5.4-1.2,7.9-2c3.9-1.3,8.2-2.9,12.1-5.3c-2.9-9.9-8-17.4-9.6-19.6C-153.3,94.9-163.8,96-167.9,96.6z"/>
			<path class="st1" d="M-138.6,93.5c1.9,2.7,6.6,9.7,9.6,19.2c2.2-1.8,4.1-4,5.5-6.5c-1.3-3.7-3-7.3-4.9-10.8
				c-1.9-3.5-4.2-6.8-6.8-9.8C-136.1,88.7-137.7,91.8-138.6,93.5z"/>
			<path class="st1" d="M-195.8,79.7c4.3,1.6,18.9,7.4,26.4,12.8c3.3-0.5,14.7-2,27-1c1.6-2.9,3.3-6.9,3.6-9.6
				c-0.1-0.2-0.3-0.3-0.4-0.5c-5.1-4.8-11.6-7.5-18.2-9.7c-9.2-3.1-19.1-4.2-28.7-2.5c-3.8,0.7-7.4,1.9-10.9,3.5L-195.8,79.7z"/>
			<path class="st1" d="M-121.9,111.5c-2,2.6-4.4,4.7-7,6.4c-0.1,0-0.1,0.1-0.2,0.1c-4.7,3.2-10,5.3-14.4,6.7
				c-2.7,0.9-5.4,1.6-8.4,2.2l-1.7,0.3c-2.8,0.5-5.7,1.1-8.6,1.4c-1.7,0.2-3.5,0.3-5.2,0.3c-5.3,0-10.6-1.2-14.4-6.5
				c-1.6-2.2-3.3-4-5.2-5.4l-0.8-0.6c-1.2-0.9-3.4-2.7-4.5-2.7l0.1-4.3c2.6,0.1,5.1,2.1,7,3.6l0.7,0.6c2.2,1.7,4.2,3.8,6,6.3
				c1.6,2.2,3.6,3.5,6,4.2c-0.1-9,0.2-24,0.3-28.2c-7.3-5.1-22-10.9-25.5-12.3c-1.4,0.8-4.9,3.8-9.1,8.1c-0.4,0.4-1,0.6-1.5,0.6
				c-0.5,0-1.1-0.2-1.5-0.6c-0.8-0.8-0.9-2.2,0-3c2.7-2.7,6.9-6.8,9.8-8.6l-0.9-5.2c-7.2,4.3-14.2,10.9-18.5,18.6
				c-4.3,7.7-5.7,16.5-1.6,25c1.3,2.8,4,7.4,6.7,9c2.4,1.4,4.9,2.6,7.4,3.7c2.3,0.9,4.2,2.1,6.5,2.8c2.1,0.6,4.2,1.3,6.3,1.8
				c2.1,0.5,4.3,0.6,6.5,1c1.9,0.4,3.8,0.7,5.7,0.7c9.9,0.1,19.8,0.6,29.5-1.7c5.9-1.4,11.7-3.2,17.2-5.6c2.8-1.2,5.5-2.6,8.1-4.3
				c2.1-1.3,4.8-2.6,5.9-5c1.2-2.5,0.2-5.5-0.4-8C-121.6,112.4-121.8,111.9-121.9,111.5z"/>
		</g>
		<g>
			<path class="st2" d="M-211.1,135.4c-1-0.6-2.4-0.8-4.3-1c-2.5-0.4-5.2-1.1-7.7-0.6c-2.1,0.4-2.4,0.9-3.1,2.9
				c-1.1,3.1-4.3,12.5-1.8,15.5c0.6,0.7,2,1,2.9,1.3c2.5,0.8,5.2,0.9,7.8,1.1c2.3,0.1,4.5-0.3,6.6-0.9c1.6-0.4,2.3-0.8,2.4-2.6
				c0.3-3.8-0.6-7.6-0.9-11.3C-209.3,137.3-209.9,136.1-211.1,135.4z"/>
			<g>
				<path class="st2" d="M-124.2,124.1c-0.9,0.6-1.9,1.2-2.8,1.7c-2.6,1.6-5.3,3-8.1,4.3c-5.5,2.4-11.4,4.2-17.2,5.6
					c-9.7,2.3-19.6,1.8-29.5,1.7c-1.9,0-3.8-0.3-5.7-0.7c-0.5-0.1-1-0.2-1.6-0.3l0.5,5.6c0,0,1.9,0.1,5.2-0.1
					c-0.7,6.4-0.9,13.4,0.8,14.7c0.7,0.6,2.3,0.7,3.3,0.9c2.8,0.5,5.7,0.4,8.6,0.4c2.5,0,4.8-0.6,7.1-1.3c1.7-0.5,2.5-0.9,2.4-2.5
					c0-2-0.7-8.5-1.4-14c6.3-0.8,14.2-2.4,21.2-5.3c0.1,2.2,0.2,4.1,0.2,4.5c-0.1,1.5-0.1,3.6,1.3,4.8c3.8,3.3,13.1,1.4,17.4-0.1
					c3.2-1.1,2.2-4.8,1.6-7C-121.3,135.7-122.8,128.9-124.2,124.1z"/>
				<path class="st2" d="M-113.9,101.3c-1.7-1.6-4.4,0.5-6,1.3c-1.4,0.7-2.8,1.5-4.2,2.2c1,2.7,1.9,5.3,2.6,8.1
					c0.3,1.2,0.7,2.6,0.9,3.9c0.1-0.1,0.1-0.1,0.2-0.2c0.5-0.6,1-1.2,1.4-1.8c1.8-2.5,3.1-5.2,4.5-7.9
					C-113.9,105.6-112.6,102.5-113.9,101.3z"/>
			</g>
			<g>
				<path class="st2" d="M-188.6,142c-1.1,0-2.3,0-3.4,0c-8.3,0-16.3-0.2-24.5-2.1c-12.4-2.8-22.1-10.3-23.8-23.6
					c-1-8.2,0.6-17.9,7-23.7c5.9-5.4,16.7-6.9,24-4.4c8.5,2.9,14.8,9.9,18.3,18c2.7,6.2,4.6,11.8,5.7,18.6c0.2,1,2.1,16.6-0.2,16.9
					C-186.6,141.9-187.6,142-188.6,142z"/>
				<path class="st0" d="M-210.8,100.5c2.5-0.4,4.9,1.5,5.4,4.3c0.5,2.8-1.1,5.4-3.5,5.9c-2.5,0.4-4.9-1.5-5.4-4.3
					C-214.8,103.6-213.2,100.9-210.8,100.5z"/>
				<path class="st0" d="M-233.3,104.2c0.7-2.8,3.3-4.5,5.7-3.9c2.4,0.6,3.8,3.4,3.1,6.1c-0.7,2.8-3.2,4.5-5.7,3.9
					C-232.6,109.7-234,106.9-233.3,104.2z"/>
				<path class="st0" d="M-217.2,116.3c-1.1,0.6-2.1,1.3-3.4,0.8c-0.8-0.3-1.5-0.5-2.2-1c-0.5-0.3-1-0.6-1.5-1
					c-0.3-0.2-0.5-0.4-0.7-0.6c-0.3-0.2-0.4-0.3-0.7-0.3c-0.3,0-0.9-0.1-1.1,0.2c-0.9,1.1,0.4,2.6,1.1,3.3c1.1,1,2.6,2.2,4,2.8
					c1.4,0.6,2.7,1.3,4.2,0.6c1.6-0.8,3-2,4.4-3c0.9-0.7,3-1.9,2.6-3.3c-0.3-1-1.4-0.8-2.2-0.6c-1,0.3-1.8,0.8-2.7,1.2
					C-216.1,115.7-216.6,116-217.2,116.3z"/>
			</g>
		</g>
	</g>
</g>
</svg>
